<?xml version="1.0" standalone="no"?>
<!DOCTYPE svg PUBLIC "-//W3C//DTD SVG 20010904//EN"
 "http://www.w3.org/TR/2001/REC-SVG-20010904/DTD/svg10.dtd">
<svg version="1.0" xmlns="http://www.w3.org/2000/svg"
 width="2049.000000pt" height="2052.000000pt" viewBox="0 0 2049.000000 2052.000000"
 preserveAspectRatio="xMidYMid meet">

<g transform="translate(0.000000,2052.000000) scale(0.100000,-0.100000)"
fill="#000000" stroke="none">
<path d="M12891 20414 c-220 -360 -573 -684 -1176 -1082 -405 -266 -493 -330
-660 -473 -358 -307 -580 -619 -666 -939 -20 -72 -23 -110 -23 -245 -1 -138 3
-172 23 -245 74 -263 253 -527 481 -708 291 -231 491 -516 653 -927 30 -77 62
-165 72 -195 10 -30 20 -59 22 -63 3 -4 40 26 84 67 174 164 383 302 664 441
262 129 475 205 728 258 96 20 130 33 199 73 550 323 726 785 553 1450 -59
227 -131 404 -307 759 -316 638 -504 1140 -574 1530 -11 63 -18 153 -18 242
-1 79 -1 143 -2 143 0 0 -24 -38 -53 -86z"/>
<path d="M7467 20370 c-3 -30 -10 -111 -17 -180 -33 -382 -184 -807 -477
-1340 -219 -400 -369 -801 -439 -1180 -14 -72 -18 -148 -19 -310 0 -191 3
-225 23 -303 50 -201 130 -343 264 -473 164 -160 304 -230 663 -329 193 -53
293 -87 445 -149 266 -109 539 -271 759 -448 l105 -84 37 110 c94 280 237 539
436 786 86 108 264 285 372 372 106 85 200 211 286 383 80 160 113 279 121
430 19 344 -149 686 -516 1054 -194 195 -328 301 -565 446 -892 545 -1314 900
-1452 1219 l-21 50 -5 -54z"/>
<path d="M17602 17700 c-251 -131 -569 -221 -957 -269 -212 -27 -374 -39 -705
-51 -432 -16 -693 -48 -955 -115 -601 -154 -946 -438 -1063 -874 -23 -87 -26
-114 -26 -286 0 -166 3 -205 26 -310 14 -66 42 -164 62 -218 87 -233 119 -412
119 -677 0 -203 -16 -350 -63 -582 -16 -78 -28 -143 -27 -144 1 -2 38 6 82 17
432 104 1096 58 1555 -107 98 -35 114 -38 240 -42 646 -17 1055 327 1236 1041
33 133 70 354 83 502 6 66 18 201 26 300 76 875 225 1499 429 1799 25 36 43
66 38 65 -4 0 -49 -22 -100 -49z"/>
<path d="M2792 17643 c2 -4 24 -48 49 -98 185 -360 294 -925 339 -1760 56
-1026 289 -1572 753 -1760 132 -54 228 -70 417 -69 180 0 261 11 495 69 495
120 915 145 1385 81 52 -8 96 -12 98 -11 2 2 -5 54 -15 117 -22 142 -25 586
-5 748 23 185 59 381 106 575 54 228 64 286 72 431 12 191 -26 393 -102 551
-207 433 -779 688 -1647 733 -838 44 -1498 173 -1889 371 -33 17 -58 27 -56
22z"/>
<path d="M10095 17193 c-122 -234 -310 -478 -607 -789 -272 -285 -469 -595
-539 -850 -30 -109 -37 -303 -15 -399 23 -96 75 -200 144 -287 73 -91 132
-142 303 -259 74 -50 181 -128 239 -173 133 -103 359 -322 457 -443 l76 -94
45 68 c150 225 358 416 622 571 285 167 476 396 526 632 23 109 14 277 -21
395 -50 171 -170 384 -326 581 -35 44 -130 152 -211 240 -310 337 -492 580
-605 809 -21 41 -40 75 -43 75 -3 0 -23 -35 -45 -77z"/>
<path d="M13582 16279 c-224 -143 -543 -275 -903 -373 -330 -90 -652 -251
-867 -435 -127 -108 -237 -283 -267 -426 -40 -191 15 -474 116 -595 101 -121
188 -291 239 -470 42 -144 80 -392 80 -522 0 -32 2 -58 3 -58 2 0 48 23 102
50 219 111 425 156 785 170 150 6 258 15 300 25 305 74 493 209 600 430 127
262 131 624 15 1130 -94 409 -116 566 -124 876 l-6 245 -73 -47z"/>
<path d="M6650 16169 c0 -278 -36 -543 -120 -873 -137 -544 -126 -978 32
-1279 49 -93 183 -222 283 -274 146 -76 233 -94 590 -123 292 -25 611 -98 862
-198 l51 -21 7 82 c23 295 91 501 288 872 100 189 142 360 135 549 -9 213 -68
345 -228 507 -190 193 -434 321 -865 455 -464 145 -755 271 -1007 438 l-28 18
0 -153z"/>
<path d="M14372 14010 c-192 -25 -367 -91 -485 -185 -107 -85 -204 -246 -248
-410 -17 -62 -21 -102 -18 -175 7 -234 3 -386 -15 -470 -27 -134 -91 -312
-172 -479 -41 -84 -74 -155 -74 -156 0 -2 39 -6 88 -10 268 -21 508 -103 782
-266 126 -76 232 -121 360 -156 82 -23 115 -26 240 -26 130 -1 153 2 225 26
203 67 366 214 522 470 92 150 164 319 263 611 48 144 106 308 129 366 81 202
196 423 313 600 l17 25 -152 2 c-307 3 -507 37 -1012 172 -189 51 -590 82
-763 61z"/>
<path d="M5700 14004 c-138 -13 -296 -40 -465 -79 -406 -94 -645 -127 -932
-127 -176 0 -192 -1 -183 -17 5 -9 38 -65 74 -125 118 -198 237 -488 316 -771
91 -330 192 -563 339 -785 62 -93 197 -241 270 -294 254 -187 549 -188 918 -2
296 148 588 246 880 296 64 11 118 22 120 24 2 1 -17 45 -41 97 -117 249 -176
532 -176 850 0 289 -117 583 -291 731 -161 137 -345 196 -629 202 -85 2 -175
2 -200 0z"/>
<path d="M2890 13974 c-204 -32 -477 -115 -705 -215 -60 -26 -198 -92 -305
-146 -698 -355 -1298 -559 -1757 -598 l-83 -8 72 -44 c121 -75 237 -171 389
-322 248 -249 439 -493 758 -970 311 -465 454 -646 673 -856 191 -184 388
-306 573 -357 107 -29 336 -31 435 -4 245 67 431 184 701 441 382 363 716 578
1237 795 22 9 21 12 -38 82 -227 269 -440 701 -580 1173 -62 209 -98 310 -145
410 -154 322 -381 523 -680 601 -86 23 -125 27 -275 30 -122 2 -204 -1 -270
-12z"/>
<path d="M17115 13914 c-139 -19 -191 -29 -260 -51 -278 -88 -488 -274 -631
-562 -65 -130 -122 -308 -145 -450 -11 -69 -29 -162 -40 -206 -78 -305 -271
-641 -546 -952 l-73 -82 42 -11 c222 -56 502 -189 768 -364 220 -145 388 -288
581 -495 103 -109 155 -146 304 -216 414 -195 788 -161 1168 105 113 79 353
316 467 460 46 57 151 206 233 330 574 860 1010 1343 1359 1505 l53 25 -88 0
c-255 0 -579 69 -911 194 -206 78 -363 149 -716 325 -173 86 -367 179 -430
206 -261 110 -524 188 -735 220 -109 16 -342 27 -400 19z"/>
<path d="M4930 11470 c-155 -33 -310 -105 -495 -231 -138 -94 -209 -152 -392
-322 -329 -303 -579 -491 -808 -604 -41 -21 -75 -41 -75 -45 0 -4 35 -25 78
-47 89 -45 261 -156 377 -245 114 -86 220 -180 375 -331 421 -410 877 -637
1198 -596 103 13 173 35 252 78 141 77 243 178 372 372 151 225 283 385 464
561 66 64 147 138 182 164 34 27 62 52 62 56 0 3 -37 32 -82 63 -209 142 -393
345 -545 601 -79 133 -136 207 -235 302 -217 209 -455 283 -728 224z"/>
<path d="M15106 11474 c-38 -7 -103 -29 -144 -49 -162 -77 -269 -178 -414
-392 -218 -320 -477 -604 -698 -767 -16 -12 -21 -20 -13 -23 47 -18 208 -148
314 -253 139 -138 206 -223 311 -399 89 -146 146 -218 257 -323 97 -92 201
-156 313 -195 89 -31 263 -42 360 -24 270 51 576 232 891 529 326 306 579 499
830 632 l98 52 -106 59 c-254 141 -455 297 -764 594 -444 426 -890 628 -1235
559z"/>
<path d="M2625 10090 c-363 -45 -737 -312 -1094 -780 -49 -63 -144 -200 -213
-305 -452 -689 -884 -1183 -1246 -1423 l-55 -37 119 -6 c399 -22 900 -192
1601 -543 484 -242 772 -355 1076 -423 110 -24 141 -27 322 -27 175 0 210 3
280 22 217 60 400 197 537 402 100 151 152 280 269 660 124 407 325 783 628
1181 l20 25 -107 43 c-368 148 -707 379 -1114 761 -216 203 -352 300 -520 372
-155 66 -353 96 -503 78z"/>
<path d="M17490 10018 c-278 -39 -612 -251 -825 -523 -76 -97 -222 -240 -326
-317 -202 -151 -490 -293 -797 -393 l-53 -17 64 -67 c324 -338 619 -924 716
-1424 14 -72 29 -112 61 -168 204 -352 460 -551 793 -614 46 -9 136 -15 217
-15 329 0 666 101 1162 347 686 340 1203 534 1594 599 55 9 158 16 233 16
l133 1 -68 41 c-365 221 -713 597 -1095 1182 -306 469 -410 605 -639 835 -187
189 -328 299 -489 383 -240 124 -456 166 -681 134z"/>
<path d="M14655 8886 c-111 -29 -218 -78 -309 -140 -198 -137 -447 -216 -821
-262 -77 -9 -141 -18 -143 -19 -1 -1 15 -33 37 -71 90 -156 169 -406 190 -600
6 -54 10 -196 9 -314 -2 -251 8 -307 88 -470 39 -79 61 -109 133 -181 100
-100 189 -156 324 -204 162 -58 245 -70 482 -69 233 1 220 -1 545 87 385 104
581 135 917 146 l212 6 -28 45 c-157 252 -359 707 -526 1185 -71 204 -111 286
-210 435 -153 230 -345 384 -541 434 -93 24 -249 20 -359 -8z"/>
<path d="M5425 8869 c-239 -40 -453 -220 -627 -527 -85 -150 -142 -284 -188
-447 -101 -359 -255 -701 -459 -1025 l-67 -105 221 -1 c314 -1 665 -47 1154
-150 213 -45 218 -46 356 -41 504 20 812 210 936 577 31 91 32 104 40 315 14
396 83 727 197 951 l20 40 -126 12 c-287 28 -493 91 -842 257 -212 101 -287
128 -405 144 -87 12 -138 12 -210 0z"/>
<path d="M11970 7048 c0 -303 -99 -620 -279 -896 -122 -187 -165 -320 -165
-507 -1 -139 15 -209 73 -330 92 -193 265 -364 508 -503 143 -82 236 -118 463
-177 242 -64 418 -119 565 -177 110 -43 354 -163 464 -227 38 -23 71 -41 74
-41 2 0 7 91 10 203 11 367 67 804 157 1241 23 113 27 304 9 451 -56 455 -274
707 -669 771 -72 12 -130 14 -240 9 -284 -13 -496 39 -937 231 l-33 14 0 -62z"/>
<path d="M8335 7091 c-24 -23 -227 -116 -320 -146 -203 -67 -289 -78 -590 -80
-289 -1 -323 -6 -463 -61 -252 -98 -426 -330 -492 -654 -49 -239 -37 -489 36
-751 133 -479 174 -734 174 -1076 0 -84 4 -153 8 -153 5 0 47 23 93 50 253
151 679 337 1139 497 199 69 282 109 430 208 329 220 486 494 449 787 -18 146
-86 318 -174 443 -132 186 -214 465 -260 888 -6 56 -12 66 -30 48z"/>
<path d="M10154 6568 c-166 -276 -389 -478 -709 -642 -236 -120 -397 -310
-452 -531 -25 -104 -23 -304 5 -417 43 -175 120 -341 245 -528 31 -47 135
-161 277 -305 316 -321 422 -453 602 -748 50 -81 94 -145 98 -140 3 4 33 53
65 108 171 292 448 663 768 1029 257 294 402 710 343 985 -49 233 -219 427
-496 566 -58 29 -134 74 -170 100 -134 99 -336 314 -479 513 -29 39 -54 72
-56 72 -2 0 -20 -28 -41 -62z"/>
<path d="M15760 6569 c-119 -17 -241 -49 -350 -92 -235 -90 -372 -117 -645
-124 -232 -6 -381 7 -610 51 -71 14 -130 24 -132 22 -3 -2 3 -28 11 -57 28
-98 55 -285 65 -455 23 -368 -30 -794 -140 -1128 -37 -112 -39 -127 -39 -239
0 -507 219 -867 653 -1072 266 -126 604 -197 1067 -225 675 -40 1219 -123
1582 -241 129 -41 298 -118 370 -166 24 -16 48 -33 55 -37 7 -3 -8 29 -32 72
-214 388 -314 850 -360 1667 -30 536 -77 826 -185 1140 -171 496 -465 793
-865 876 -96 20 -336 25 -445 8z"/>
<path d="M4205 6534 c-87 -12 -157 -27 -215 -46 -350 -112 -594 -430 -725
-942 -45 -177 -62 -298 -80 -576 -54 -806 -162 -1464 -301 -1836 -37 -100
-100 -232 -149 -312 l-27 -43 45 34 c116 88 245 149 449 211 363 110 870 174
1633 206 250 11 369 27 605 86 613 152 955 459 1025 920 36 241 1 500 -115
844 -74 219 -110 430 -110 639 0 166 37 433 86 625 8 32 14 60 12 62 -2 2 -28
-3 -58 -11 -121 -31 -335 -65 -481 -75 -289 -21 -592 15 -875 104 -140 45
-248 72 -354 91 -86 16 -309 27 -365 19z"/>
<path d="M11561 4960 c-31 -112 -102 -285 -175 -426 -185 -355 -411 -644 -728
-932 -82 -74 -190 -285 -245 -478 -26 -92 -28 -112 -28 -274 0 -213 16 -284
105 -467 75 -153 179 -293 330 -443 159 -159 291 -262 601 -471 605 -406 927
-664 1215 -972 105 -112 185 -220 242 -326 l40 -73 6 88 c18 265 56 470 132
705 83 259 173 466 393 909 175 351 238 494 305 694 88 260 125 448 133 674
11 311 -47 534 -191 736 -57 80 -183 199 -273 259 -139 92 -376 189 -528 216
-33 5 -103 18 -155 27 -344 60 -728 266 -1074 573 -38 33 -72 61 -76 61 -4 0
-17 -36 -29 -80z"/>
<path d="M8665 4943 c-168 -157 -467 -355 -720 -478 -217 -105 -399 -171 -625
-226 -86 -21 -149 -43 -200 -71 -288 -157 -500 -364 -606 -594 -62 -133 -86
-246 -91 -429 -6 -188 9 -309 62 -513 58 -220 118 -371 211 -529 211 -361 434
-785 542 -1033 70 -163 146 -386 177 -526 42 -185 44 -335 8 -494 -3 -14 35
36 84 110 119 179 195 273 322 400 180 179 404 348 726 547 387 239 671 459
930 718 382 382 547 712 532 1060 -14 311 -163 560 -512 855 -208 176 -298
275 -418 455 -114 173 -214 394 -301 665 -26 79 -48 145 -49 146 -1 1 -33 -27
-72 -63z"/>
</g>
</svg>
